<svg xmlns="http://www.w3.org/2000/svg" viewBox="0 0 378.5 178.5"><defs><style>.cls-1{fill:#35d4ff;fill-rule:evenodd;}.cls-2{font-size:130.83px;fill:#00cfff;font-family:Chiller-Regular, Chiller;}.cls-3{fill:#1ea0e2;}.cls-4{fill:#fff;}</style></defs><title>Asset 1</title><g id="Layer_2" data-name="Layer 2"><g id="Layer_1-2" data-name="Layer 1"><path class="cls-1" d="M178,23.5v131a22.9,22.9,0,0,1-.42,4.41,23.4,23.4,0,0,1-5.06,10.67l-.75.85A23.4,23.4,0,0,1,154.5,178H23.5A23.5,23.5,0,0,1,0,154.5V23.5A23.4,23.4,0,0,1,5.3,8.64L6.84,6.93A23.46,23.46,0,0,1,23.5,0h131a23.17,23.17,0,0,1,4.74.48A23.48,23.48,0,0,1,178,23.5Z"/><text class="cls-2" transform="translate(187.29 138.57) scale(0.89 1)">ORDS</text><g id="W_shadow" data-name="W shadow"><path class="cls-3" d="M62.6,55.89,41.88,53.68V45H88.47v8.7l-20.3,2.21ZM110.47,45h18.44l19.43,74.46L138.2,141.11,164.92,45h9.86l-28.87,96.13H128.76L108,69.46l6.72-6.64L92,141.11H74.89L46.6,45h30l18,74.46L84,141.11Zm5.58,10.91L98.9,53.68V45h44.44v8.7l-17.72,2.21Zm49.87,0L153.2,53.68V45h29.29v8.7l-12.43,2.21Z"/></g><path class="cls-4" d="M69.6,52.89,48.88,50.68V42H95.47v8.7l-20.3,2.21ZM117.47,42h18.44l19.43,74.46L145.2,138.11,171.92,42h9.86l-28.87,96.13H135.76L115,66.46l6.72-6.64L99,138.11H81.89L53.6,42h30l18,74.46L91,138.11Zm5.58,10.91L105.9,50.68V42h44.44v8.7l-17.72,2.21Zm49.87,0L160.2,50.68V42h29.29v8.7l-12.43,2.21Z"/></g></g></svg>